<svg id="Layer_1" data-name="Layer 1" xmlns="http://www.w3.org/2000/svg" width="100" height="100" viewBox="0 0 100 100"><defs><style>.cls-1{fill:none;}.cls-2{fill:#2020a7;}.cls-3{fill:#c9c9c9;}</style></defs><title>pil_tilbage</title><rect class="cls-1" x="3.54" y="60.13" width="29.33" height="31.74"/><polygon class="cls-2" points="32.87 60.13 17 76 32.87 91.87 19.41 91.87 3.54 76 19.41 60.13 32.87 60.13"/><rect class="cls-1" x="35.28" y="60.13" width="29.33" height="31.74"/><polygon class="cls-2" points="64.61 60.13 48.74 76 64.61 91.87 51.15 91.87 35.27 76 51.15 60.13 64.61 60.13"/><rect class="cls-1" x="67.02" y="60.13" width="29.33" height="31.74"/><polygon class="cls-2" points="96.35 60.13 80.48 76 96.35 91.87 82.88 91.87 67.01 76 82.88 60.13 96.35 60.13"/><path class="cls-3" d="M41.33,39.7v2.4h-4V53.22H34.44V42.1H30.38V39.7Z"/><path class="cls-3" d="M45.13,42H42.48V39.62h2.65Zm-2.65,1.19h2.65v10H42.48Z"/><path class="cls-3" d="M50.33,53.22H47.71V39.7h2.62Z"/><path class="cls-3" d="M61.42,44.43a5.78,5.78,0,0,1,1.12,3.67A6.41,6.41,0,0,1,61.43,52a4,4,0,0,1-5.09,1,3.85,3.85,0,0,1-1-1v1.25H52.79V39.72H55.4v4.81a3.83,3.83,0,0,1,1.1-1.07A3.33,3.33,0,0,1,58.31,43,3.75,3.75,0,0,1,61.42,44.43Zm-2.19,6.09a3.69,3.69,0,0,0,.56-2.15,4.9,4.9,0,0,0-.27-1.76,1.93,1.93,0,0,0-1.94-1.32,2,2,0,0,0-2,1.29,4.94,4.94,0,0,0-.27,1.78,3.71,3.71,0,0,0,.57,2.13,2,2,0,0,0,1.75.84A1.82,1.82,0,0,0,59.23,50.52Z"/><path class="cls-3" d="M68.31,47.14a4.18,4.18,0,0,0,1-.23.78.78,0,0,0,.56-.74.88.88,0,0,0-.43-.85,2.69,2.69,0,0,0-1.27-.23,1.65,1.65,0,0,0-1.33.46,1.8,1.8,0,0,0-.37.91H64a3.81,3.81,0,0,1,.73-2.15A4.32,4.32,0,0,1,68.31,43a6.32,6.32,0,0,1,2.93.65,2.5,2.5,0,0,1,1.28,2.46v4.58c0,.32,0,.71,0,1.16a1.48,1.48,0,0,0,.15.7,1,1,0,0,0,.39.3v.38H70.23a2.74,2.74,0,0,1-.16-.57,4.52,4.52,0,0,1-.07-.6,5.84,5.84,0,0,1-1.26,1,3.86,3.86,0,0,1-1.92.49,3.28,3.28,0,0,1-2.25-.78,2.75,2.75,0,0,1-.9-2.2,2.84,2.84,0,0,1,1.44-2.67,6.38,6.38,0,0,1,2.31-.64Zm1.6,1.22a2.13,2.13,0,0,1-.5.25,3.62,3.62,0,0,1-.71.18l-.59.11a3.92,3.92,0,0,0-1.2.36,1.2,1.2,0,0,0-.62,1.11,1.17,1.17,0,0,0,.38,1,1.4,1.4,0,0,0,.91.3,2.72,2.72,0,0,0,1.58-.5,2.1,2.1,0,0,0,.75-1.81Z"/><path class="cls-3" d="M79.75,43.22a3.18,3.18,0,0,1,1.54,1.44V43.22h2.55v9.49a5.28,5.28,0,0,1-.66,2.92q-1.11,1.68-4.29,1.68a5.87,5.87,0,0,1-3.13-.75,2.8,2.8,0,0,1-1.34-2.25h2.85a1.1,1.1,0,0,0,.36.66,2.18,2.18,0,0,0,1.42.36,1.91,1.91,0,0,0,1.89-.94,4.78,4.78,0,0,0,.31-2v-.64a3.06,3.06,0,0,1-.81,1,3.21,3.21,0,0,1-2,.6,3.83,3.83,0,0,1-3.08-1.35,5.49,5.49,0,0,1-1.15-3.67,6.28,6.28,0,0,1,1.1-3.75A3.67,3.67,0,0,1,78.44,43,3.33,3.33,0,0,1,79.75,43.22Zm.89,7.16a3.19,3.19,0,0,0,.63-2.2,3.4,3.4,0,0,0-.6-2.17,2,2,0,0,0-1.6-.74,1.88,1.88,0,0,0-1.89,1.29,4.48,4.48,0,0,0-.28,1.7,4,4,0,0,0,.29,1.55,1.92,1.92,0,0,0,1.9,1.27A2,2,0,0,0,80.64,50.38Z"/><path class="cls-3" d="M92.79,43.43a4,4,0,0,1,1.73,1.48,5,5,0,0,1,.8,2.06,13.41,13.41,0,0,1,.08,2H88.12a2.4,2.4,0,0,0,1,2.11,2.61,2.61,0,0,0,1.44.37A2.19,2.19,0,0,0,92.06,51a2.25,2.25,0,0,0,.54-.68h2.66a3.27,3.27,0,0,1-1,1.8,4.85,4.85,0,0,1-3.77,1.46A5.45,5.45,0,0,1,87,52.33a4.86,4.86,0,0,1-1.52-4,5.47,5.47,0,0,1,1.37-4A4.84,4.84,0,0,1,90.44,43,5.57,5.57,0,0,1,92.79,43.43Zm-3.91,2.26a2.73,2.73,0,0,0-.7,1.54h4.51a2.19,2.19,0,0,0-.7-1.58,2.29,2.29,0,0,0-1.55-.54A2,2,0,0,0,88.88,45.69Z"/></svg>
