<?xml version="1.0" standalone="no"?>
<!DOCTYPE svg PUBLIC "-//W3C//DTD SVG 20010904//EN"
 "http://www.w3.org/TR/2001/REC-SVG-20010904/DTD/svg10.dtd">
<svg version="1.0" xmlns="http://www.w3.org/2000/svg"
 width="512.000000pt" height="512.000000pt" viewBox="0 0 512.000000 512.000000"
 preserveAspectRatio="xMidYMid meet">
<metadata>
Created by potrace 1.11, written by Peter Selinger 2001-2013
</metadata>
<g transform="translate(0.000000,512.000000) scale(0.100000,-0.100000)"
fill="#000000" stroke="none">
<path d="M1530 4366 c0 -8 15 -17 37 -21 73 -13 114 -48 159 -135 10 -19 167
-368 349 -775 280 -623 335 -741 353 -743 12 -2 22 -1 22 1 0 22 598 1522 621
1558 34 54 58 72 117 90 23 7 42 18 42 26 0 10 -48 13 -255 13 -209 0 -255 -2
-255 -14 0 -9 18 -16 50 -20 138 -18 160 -84 92 -277 -70 -201 -357 -959 -363
-959 -5 0 -354 774 -436 970 -53 125 -64 194 -37 228 20 25 75 41 137 42 26 0
37 4 37 15 0 13 -44 15 -335 15 -279 0 -335 -2 -335 -14z"/>
<path d="M3875 2721 c-204 -55 -320 -91 -319 -99 1 -6 2 -16 3 -20 0 -5 41 -8
90 -8 139 1 135 9 240 -382 38 -139 65 -254 61 -257 -12 -7 -722 -196 -725
-193 -2 2 -35 122 -74 267 -82 307 -87 353 -41 399 16 16 54 40 85 53 30 12
55 27 55 33 -1 37 -18 34 -343 -53 -180 -49 -330 -90 -332 -93 -3 -3 -2 -13 1
-22 6 -15 16 -17 74 -11 92 9 131 -8 163 -72 21 -41 305 -1073 336 -1221 23
-112 6 -147 -98 -196 -40 -20 -61 -36 -61 -47 0 -10 3 -20 8 -23 6 -3 264 63
629 163 33 9 40 15 36 30 -4 17 -14 19 -93 18 -137 -3 -141 3 -239 370 -38
142 -71 267 -73 277 -3 17 36 29 362 117 200 54 365 97 366 96 10 -11 146
-548 150 -593 6 -54 4 -62 -19 -90 -15 -17 -53 -43 -87 -58 -41 -18 -60 -33
-60 -45 0 -10 2 -20 5 -23 3 -3 153 35 333 83 180 49 330 89 334 89 4 0 4 10
-1 22 -7 19 -14 21 -90 19 -96 -3 -120 8 -150 68 -34 65 -341 1229 -341 1290
0 48 3 57 35 86 19 18 56 41 82 51 27 10 50 19 51 20 9 6 -10 44 -21 43 -7 -1
-156 -40 -332 -88z"/>
<path d="M896 2755 c-11 -29 -7 -32 52 -53 31 -12 73 -34 92 -51 62 -51 57
-77 -124 -751 -95 -353 -168 -604 -183 -632 -34 -62 -61 -72 -168 -65 -76 5
-83 4 -88 -13 -6 -24 -36 -14 438 -140 438 -118 497 -130 610 -130 244 0 388
101 450 315 23 78 17 194 -13 252 -31 60 -134 167 -209 216 l-64 42 78 6 c115
8 178 32 238 93 65 66 95 141 102 257 9 142 -31 225 -150 315 -127 95 -213
127 -686 254 -189 50 -349 94 -356 96 -7 3 -15 -2 -19 -11z m646 -256 c228
-75 318 -167 318 -324 0 -174 -85 -296 -228 -326 -70 -15 -156 -4 -328 41
l-120 32 48 182 c93 347 111 407 126 422 19 19 66 13 184 -27z m-262 -704
c206 -59 354 -150 409 -252 21 -41 31 -119 21 -180 -25 -154 -104 -266 -209
-297 -168 -49 -511 29 -511 116 0 15 148 585 166 637 2 7 10 11 17 8 6 -2 55
-17 107 -32z"/>
</g>
</svg>
